<svg xmlns="http://www.w3.org/2000/svg" xmlns:xlink="http://www.w3.org/1999/xlink" width="500" zoomAndPan="magnify" viewBox="0 0 375 374.999991" height="500" preserveAspectRatio="xMidYMid meet" version="1.0"><defs><clipPath id="id1"><path d="M 114 112.824219 L 262.074219 112.824219 L 262.074219 261 L 114 261 Z M 114 112.824219 " clip-rule="nonzero"/></clipPath></defs><rect x="-37.5" width="450" fill="#ffffff" y="-37.499999" height="449.999989" fill-opacity="1"/><rect x="-37.5" width="450" fill="#000000" y="-37.499999" height="449.999989" fill-opacity="1"/><g clip-path="url(#id1)"><path fill="#ffffff" d="M 155.574219 215.621094 L 119.898438 215.621094 C 114.796875 215.621094 112.824219 208.980469 117.097656 206.195312 L 155.226562 181.339844 C 156.3125 180.632812 157.753906 181.414062 157.753906 182.710938 L 157.753906 213.445312 C 157.753906 214.648438 156.777344 215.621094 155.574219 215.621094 Z M 197.847656 216.007812 L 256.957031 216.011719 C 259.789062 216.011719 262.085938 213.714844 262.085938 210.882812 L 262.085938 121.992188 C 262.085938 119.28125 258.558594 118.230469 257.082031 120.503906 L 196.480469 213.480469 C 195.765625 214.566406 196.546875 216.007812 197.847656 216.007812 Z M 159.300781 255.007812 C 159.300781 260.105469 165.9375 262.082031 168.722656 257.808594 L 193.570312 219.683594 C 194.277344 218.597656 193.5 217.15625 192.199219 217.15625 L 161.476562 217.15625 C 160.273438 217.15625 159.296875 218.132812 159.296875 219.335938 Z M 161.4375 178.429688 L 254.398438 117.828125 C 256.671875 116.351562 255.625 112.824219 252.914062 112.824219 L 164.039062 112.835938 C 161.207031 112.835938 158.910156 115.132812 158.910156 117.964844 L 158.910156 177.058594 C 158.910156 178.359375 160.347656 179.136719 161.4375 178.429688 Z M 164.328125 183.144531 L 191.769531 210.597656 C 192.503906 211.332031 193.726562 211.203125 194.292969 210.332031 L 247.386719 128.878906 C 247.960938 127.996094 246.921875 126.953125 246.039062 127.53125 L 164.59375 180.621094 C 163.722656 181.1875 163.59375 182.410156 164.328125 183.144531 Z M 166.105469 214.078125 L 187.933594 214.078125 C 188.90625 214.078125 189.390625 212.90625 188.703125 212.21875 L 162.707031 186.210938 C 162.019531 185.527344 160.847656 186.011719 160.847656 186.984375 L 160.847656 208.820312 C 160.847656 210.214844 161.402344 211.550781 162.386719 212.539062 L 162.390625 212.539062 C 163.375 213.523438 164.710938 214.078125 166.105469 214.078125 Z M 166.105469 214.078125 " fill-opacity="1" fill-rule="nonzero"/></g></svg>